<svg xmlns="http://www.w3.org/2000/svg" viewBox="0 0 300 180" width="300" height="180">
  <defs>
    <linearGradient id="baconGradient" x1="0" y1="0" x2="1" y2="1">
      <stop offset="0%" stop-color="#c33"/>
      <stop offset="30%" stop-color="#f25"/>
      <stop offset="60%" stop-color="#c33"/>
      <stop offset="100%" stop-color="#f25"/>
    </linearGradient>
    <linearGradient id="fatGradient" x1="0" y1="0" x2="1" y2="0">
      <stop offset="0%" stop-color="#ffe8d0"/>
      <stop offset="100%" stop-color="#fffbf2"/>
    </linearGradient>
    <filter id="shadow" x="-20%" y="-20%" width="140%" height="140%">
      <feDropShadow dx="0" dy="4" stdDeviation="4" flood-color="#000" flood-opacity="0.2"/>
    </filter>
  </defs>

  <g filter="url(#shadow)">
    <path d="M30 140 Q40 120 60 110 Q80 100 110 110 Q140 120 170 110 Q200 100 230 110 Q250 120 270 130 Q280 140 270 155 Q250 170 230 165 Q200 160 170 155 Q140 150 110 155 Q80 160 60 155 Q40 150 30 140 Z" fill="url(#baconGradient)" stroke="#8c1d1d" stroke-width="3"/>
    <path d="M30 140 Q40 120 60 110 Q80 100 110 110 Q140 120 170 110 Q200 100 230 110 Q250 120 270 130 Q280 140 270 155 Q250 170 230 165 Q200 160 170 155 Q140 150 110 155 Q80 160 60 155 Q40 150 30 140 Z" fill="none" stroke="#510000" stroke-width="1" opacity="0.35"/>
  </g>

  <path d="M40 132 C70 120 95 125 120 130" fill="none" stroke="#fff0d5" stroke-width="12" stroke-linecap="round" stroke-linejoin="round" opacity="0.9"/>
  <path d="M80 118 C110 110 135 115 160 120" fill="none" stroke="#fff0d5" stroke-width="10" stroke-linecap="round" opacity="0.9"/>
  <path d="M125 105 C155 95 180 100 205 110" fill="none" stroke="#fff0d5" stroke-width="12" stroke-linecap="round" opacity="0.85"/>

  <path d="M50 126 C82 116 105 120 130 125" fill="none" stroke="#8c1d1d" stroke-width="8" stroke-linecap="round" opacity="0.75"/>
  <path d="M90 112 C115 107 140 110 165 115" fill="none" stroke="#8c1d1d" stroke-width="8" stroke-linecap="round" opacity="0.75"/>
  <path d="M140 100 C170 92 195 96 220 103" fill="none" stroke="#8c1d1d" stroke-width="8" stroke-linecap="round" opacity="0.75"/>
</svg>
